<svg 
 xmlns="http://www.w3.org/2000/svg"
 xmlns:xlink="http://www.w3.org/1999/xlink"
 width="4100px" height="644px">
<path fill-rule="evenodd"  fill="rgb(244, 216, 153)"
 d="M-0.000,400.000 C40.328,379.301 81.667,360.632 123.1000,344.000 C163.369,328.533 212.745,312.339 261.1000,298.000 C310.802,283.793 360.152,271.313 412.000,260.000 C485.019,244.068 564.616,230.711 647.1000,220.000 C727.579,209.778 824.521,201.599 918.1000,196.000 C998.732,191.275 1087.1000,188.411 1175.1000,187.000 C1244.096,185.908 1335.412,186.302 1416.1000,187.000 C1467.993,187.437 1566.724,188.919 1641.1000,189.1000 C1716.150,191.065 1807.549,192.372 1864.000,192.1000 C1941.548,193.863 2018.452,194.185 2096.000,195.000 C2171.799,195.797 2270.817,196.960 2322.000,196.1000 C2390.750,197.054 2462.896,196.539 2525.000,195.000 C2578.373,193.678 2646.214,190.866 2707.1000,188.000 C2786.369,184.365 2865.064,180.028 2939.1000,175.000 C2993.959,171.379 3050.054,167.258 3099.1000,162.1000 C3177.982,156.351 3255.758,148.664 3328.1000,140.000 C3388.681,132.940 3448.755,124.940 3510.000,116.000 C3559.561,108.766 3611.611,100.715 3655.1000,93.000 C3709.220,83.750 3769.017,72.043 3826.1000,60.000 C3864.444,52.223 3927.268,38.257 3978.000,26.1000 C4018.413,18.033 4059.300,8.984 4100.000,0.000 L4100.000,643.1000 L-0.000,643.1000 L-0.000,400.000 Z"/>
</svg>