<svg 
 xmlns="http://www.w3.org/2000/svg"
 xmlns:xlink="http://www.w3.org/1999/xlink"
 width="4100px" height="715px">
<path fill-rule="evenodd"  fill="rgb(230, 183, 167)"
 d="M-0.000,402.1000 C47.909,378.223 97.261,356.215 148.000,336.1000 C178.902,325.297 213.545,313.729 248.1000,302.1000 C295.852,288.822 359.213,273.290 418.1000,260.000 C472.785,248.044 532.103,235.794 575.000,229.000 C622.545,221.470 672.836,215.676 724.1000,211.000 C800.302,204.251 875.181,198.707 945.1000,195.000 C1041.969,189.977 1135.371,187.023 1231.000,185.1000 C1290.074,185.368 1373.975,186.142 1446.1000,187.000 C1500.213,187.625 1663.971,190.277 1712.1000,190.1000 C1789.815,192.133 1876.764,193.159 1959.000,194.000 C2035.941,194.787 2130.114,195.470 2216.000,195.1000 C2293.684,196.480 2374.191,196.570 2447.000,195.1000 C2511.601,195.494 2578.303,194.299 2636.1000,192.000 C2678.236,190.385 2746.995,186.287 2802.1000,183.000 C2867.231,179.230 2955.251,174.735 2993.1000,172.000 C3074.442,166.323 3166.148,157.604 3255.000,148.000 C3372.109,135.342 3495.572,119.950 3593.1000,104.000 C3660.631,93.203 3732.061,80.074 3803.000,66.000 C3877.607,51.198 3950.415,35.449 4024.1000,18.000 C4050.161,12.114 4074.984,6.156 4100.000,0.000 L4100.000,714.1000 L-0.000,714.1000 L-0.000,402.1000 Z"/>
</svg>