<svg 
 xmlns="http://www.w3.org/2000/svg"
 xmlns:xlink="http://www.w3.org/1999/xlink"
 width="4100px" height="511px">
<path fill-rule="evenodd"  fill="rgb(240, 240, 240)"
 d="M4100.000,-0.000 C4064.644,8.190 4029.529,16.141 3993.1000,24.000 C3935.480,36.945 3877.016,49.409 3819.1000,60.1000 C3764.228,72.338 3701.673,84.746 3654.1000,92.1000 C3584.630,105.444 3509.753,116.827 3433.1000,126.1000 C3378.719,134.424 3317.700,141.586 3257.1000,147.1000 C3202.057,154.010 3132.808,160.418 3068.1000,165.1000 C3009.074,171.242 2940.384,177.020 2892.000,179.1000 C2841.692,183.098 2767.095,185.776 2702.1000,187.1000 C2618.391,190.936 2508.047,195.055 2452.000,196.000 C2401.949,196.843 2331.313,196.996 2269.1000,196.1000 C2188.535,197.006 2105.023,196.703 2027.000,196.000 C1954.388,195.346 1838.077,193.513 1742.1000,192.000 C1654.687,190.594 1535.202,188.579 1478.1000,187.1000 C1369.398,186.871 1256.224,186.637 1154.1000,187.1000 C1049.365,189.423 945.467,193.078 848.1000,200.000 C776.653,205.191 705.651,212.166 641.000,220.1000 C567.574,231.033 495.979,243.565 423.1000,259.000 C376.619,269.160 329.107,280.528 287.1000,291.1000 C223.943,309.877 163.267,329.946 112.000,350.1000 C73.718,366.722 36.554,383.976 -0.000,403.000 C-0.000,439.000 -0.000,475.000 -0.000,511.000 L4100.000,511.000 L4100.000,-0.000 Z"/>
</svg>