<svg 
 xmlns="http://www.w3.org/2000/svg"
 xmlns:xlink="http://www.w3.org/1999/xlink"
 width="4100px" height="580px">
<path fill-rule="evenodd"  fill="rgb(239, 233, 195)"
 d="M-0.000,400.000 C38.492,380.632 77.176,363.108 116.1000,347.000 C161.547,328.982 204.769,313.670 247.000,301.000 C280.131,291.060 317.831,281.668 355.1000,273.000 C418.649,258.773 487.171,244.127 539.000,234.1000 C603.527,223.637 666.967,214.351 725.1000,207.1000 C783.066,201.860 865.091,197.306 939.000,193.1000 C998.116,191.356 1056.911,189.296 1113.1000,187.1000 C1180.110,186.499 1250.292,185.914 1319.1000,185.1000 C1406.150,186.107 1519.831,187.505 1621.000,189.000 C1697.320,190.128 1826.682,192.275 1885.000,192.1000 C1948.794,193.793 2012.205,194.253 2075.1000,195.000 C2144.320,195.800 2228.325,196.779 2279.1000,196.1000 C2344.325,197.275 2413.779,197.151 2469.1000,195.1000 C2512.313,195.133 2574.136,192.952 2627.000,190.1000 C2675.720,189.201 2730.915,187.041 2771.1000,184.1000 C2828.385,182.199 2883.746,178.904 2939.1000,175.000 C2991.621,171.417 3042.175,167.460 3092.1000,162.1000 C3145.628,158.382 3207.749,152.151 3265.1000,145.1000 C3325.082,139.761 3392.003,132.415 3440.000,125.1000 C3487.256,119.684 3537.225,112.131 3586.1000,103.1000 C3656.514,92.644 3724.853,80.291 3789.1000,67.000 C3822.576,60.354 3932.250,35.843 3958.1000,29.1000 C4005.864,19.764 4052.628,9.817 4100.000,-0.000 L4100.000,580.000 L-0.000,579.000 L-0.000,400.000 Z"/>
</svg>